<svg width="92" height="94" viewBox="0 0 92 94" fill="none" xmlns="http://www.w3.org/2000/svg">
<g filter="url(#filter0_d_408_5)">
<path d="M39 11.0415C43.3316 8.54059 48.6684 8.54059 53 11.0415L64.1147 17.4585C68.4464 19.9594 71.1147 24.5812 71.1147 29.5829V42.4171C71.1147 47.4188 68.4464 52.0406 64.1147 54.5415L53 60.9585C48.6684 63.4594 43.3316 63.4594 39 60.9585L27.8853 54.5415C23.5536 52.0406 20.8853 47.4188 20.8853 42.4171V29.5829C20.8853 24.5812 23.5536 19.9594 27.8853 17.4585L39 11.0415Z" fill="url(#paint0_linear_408_5)"/>
<path d="M6.29977 5H21L19 12H7.37671M20 16H8L6 3H3M9 20C9 20.5523 8.55228 21 8 21C7.44772 21 7 20.5523 7 20C7 19.4477 7.44772 19 8 19C8.55228 19 9 19.4477 9 20ZM20 20C20 20.5523 19.5523 21 19 21C18.4477 21 18 20.5523 18 20C18 19.4477 18.4477 19 19 19C19.5523 19 20 19.4477 20 20Z" stroke="url(#paint1_linear_408_5)" stroke-opacity="0.19" stroke-width="4" transform="translate(31, 22)"/>
</g>
<path d="M6.29977 5H21L19 12H7.37671M20 16H8L6 3H3M9 20C9 20.5523 8.55228 21 8 21C7.44772 21 7 20.5523 7 20C7 19.4477 7.44772 19 8 19C8.55228 19 9 19.4477 9 20ZM20 20C20 20.5523 19.5523 21 19 21C18.4477 21 18 20.5523 18 20C18 19.4477 18.4477 19 19 19C19.5523 19 20 19.4477 20 20Z" stroke="white" stroke-width="2" transform="translate(31, 22)" x='2'/>
<defs>
<filter id="filter0_d_408_5" x="0.885254" y="0.165833" width="90.2295" height="93.6683" filterUnits="userSpaceOnUse" color-interpolation-filters="sRGB">
<feFlood flood-opacity="0" result="BackgroundImageFix"/>
<feColorMatrix in="SourceAlpha" type="matrix" values="0 0 0 0 0 0 0 0 0 0 0 0 0 0 0 0 0 0 127 0" result="hardAlpha"/>
<feOffset dy="11"/>
<feGaussianBlur stdDeviation="10"/>
<feComposite in2="hardAlpha" operator="out"/>
<feColorMatrix type="matrix" values="0 0 0 0 0.12549 0 0 0 0 0.392157 0 0 0 0 0.980392 0 0 0 0.36 0"/>
<feBlend mode="normal" in2="BackgroundImageFix" result="effect1_dropShadow_408_5"/>
<feBlend mode="normal" in="SourceGraphic" in2="effect1_dropShadow_408_5" result="shape"/>
</filter>
<linearGradient id="paint0_linear_408_5" x1="17" y1="2.66805" x2="78.0601" y2="47.7284" gradientUnits="userSpaceOnUse">
<stop stop-color="#0056BC"/>
<stop offset="1" stop-color="#0F79F5"/>
</linearGradient>
<linearGradient id="paint1_linear_408_5" x1="46" y1="7" x2="46" y2="65" gradientUnits="userSpaceOnUse">
<stop stop-color="white" stop-opacity="0.54"/>
<stop offset="1" stop-color="white" stop-opacity="0"/>
</linearGradient>
</defs>
</svg>

