<svg width="24" height="24" viewBox="0 0 49 47" fill="none" xmlns="http://www.w3.org/2000/svg">
<path fill-rule="evenodd" clip-rule="evenodd" d="M3.45201 0.187099C2.47508 -0.156376 1.40471 0.357149 1.06123 1.33405C0.717784 2.31097 1.23128 3.38135 2.20821 3.7248L2.86123 3.9544C4.53026 4.5412 5.62713 4.93007 6.43423 5.3261C7.19231 5.69805 7.52648 5.99912 7.74663 6.32127C7.97228 6.6515 8.14653 7.10505 8.24486 8.01342C8.34776 8.96395 8.35031 10.202 8.35031 12.0518V18.556C8.35031 25.91 8.50838 28.3368 10.6744 30.6215C12.8404 32.906 16.3265 32.9061 23.2988 32.9061H36.5561C40.4586 32.9061 42.4098 32.906 43.7891 31.782C45.1683 30.658 45.5623 28.747 46.3501 24.9248L47.5996 18.8629C48.4673 14.5153 48.9013 12.3415 47.7913 10.8987C46.6816 9.45605 42.8896 9.45605 38.6771 9.45605H12.0817C12.0649 8.78022 12.0332 8.16537 11.9731 7.60987C11.8388 6.36892 11.5477 5.23712 10.8428 4.20552C10.1323 3.16587 9.18768 2.50002 8.08611 1.95952C7.05591 1.45402 5.74681 0.993824 4.20551 0.451999L3.45201 0.187099ZM28.3508 15.081C29.3863 15.081 30.2258 15.9205 30.2258 16.956V20.081H33.3508C34.3863 20.081 35.2258 20.9205 35.2258 21.956C35.2258 22.9915 34.3863 23.831 33.3508 23.831H30.2258V26.956C30.2258 27.9915 29.3863 28.831 28.3508 28.831C27.3153 28.831 26.4758 27.9915 26.4758 26.956V23.831H23.3508C22.3153 23.831 21.4758 22.9915 21.4758 21.956C21.4758 20.9205 22.3153 20.081 23.3508 20.081H26.4758V16.956C26.4758 15.9205 27.3153 15.081 28.3508 15.081Z" fill="#FFF"/>
<path d="M14.6011 39.4561C16.6721 39.4561 18.3511 41.1351 18.3511 43.2061C18.3511 45.2771 16.6721 46.9561 14.6011 46.9561C12.53 46.9561 10.8511 45.2771 10.8511 43.2061C10.8511 41.1351 12.53 39.4561 14.6011 39.4561Z" fill="#FFF"/>
<path d="M37.1011 39.4563C39.1721 39.4563 40.8511 41.135 40.8511 43.2063C40.8511 45.2773 39.1721 46.9563 37.1011 46.9563C35.0301 46.9563 33.3511 45.2773 33.3511 43.2063C33.3511 41.135 35.0301 39.4563 37.1011 39.4563Z" fill="#FFF"/>
</svg>
