<svg width="28" height="28" viewBox="0 0 61 61" fill="none" xmlns="http://www.w3.org/2000/svg">
<path d="M30.5776 20.4537V30.4537L36.8276 36.7037" stroke="#FFF" stroke-width="3.75" stroke-linecap="round" stroke-linejoin="round"/>
<path d="M11.4223 17.6302L9.54729 17.6397C9.55244 18.6678 10.3847 19.5 11.4128 19.5052L11.4223 17.6302ZM17.7767 19.5372C18.8122 19.5424 19.6559 18.7072 19.6611 17.6716C19.6663 16.6361 18.8311 15.7924 17.7956 15.7872L17.7767 19.5372ZM13.2653 11.2569C13.26 10.2214 12.4164 9.38617 11.3809 9.39137C10.3453 9.39659 9.51009 10.2403 9.51531 11.2758L13.2653 11.2569ZM9.95264 30.4537C9.95264 29.4182 9.11316 28.5787 8.07764 28.5787C7.04211 28.5787 6.20264 29.4182 6.20264 30.4537H9.95264ZM42.7664 51.5667C43.6629 51.0482 43.9691 49.9012 43.4506 49.0047C42.9321 48.1085 41.7851 47.802 40.8889 48.3207L42.7664 51.5667ZM48.4446 40.765C47.9259 41.6612 48.2324 42.8082 49.1286 43.3267C50.0251 43.8452 51.1721 43.539 51.6906 42.6425L48.4446 40.765ZM13.4285 13.1319C12.6926 13.8604 12.6867 15.0476 13.4153 15.7835C14.1438 16.5194 15.331 16.5253 16.0669 15.7967L13.4285 13.1319ZM47.7334 13.2984C38.1829 3.74787 22.7497 3.65117 13.2624 13.1385L15.914 15.7901C23.9118 7.79235 36.9706 7.83882 45.0819 15.95L47.7334 13.2984ZM13.2624 13.1385L10.0964 16.3044L12.7481 18.9561L15.914 15.7901L13.2624 13.1385ZM11.4128 19.5052L17.7767 19.5372L17.7956 15.7872L11.4317 15.7553L11.4128 19.5052ZM13.2972 17.6208L13.2653 11.2569L9.51531 11.2758L9.54729 17.6397L13.2972 17.6208ZM30.5776 9.82872C41.9684 9.82872 51.2026 19.0628 51.2026 30.4537H54.9526C54.9526 16.9918 44.0396 6.07872 30.5776 6.07872V9.82872ZM30.5776 51.0787C19.1868 51.0787 9.95264 41.8445 9.95264 30.4537H6.20264C6.20264 43.9157 17.1157 54.8287 30.5776 54.8287V51.0787ZM40.8889 48.3207C37.8571 50.0745 34.3374 51.0787 30.5776 51.0787V54.8287C35.0144 54.8287 39.1794 53.6417 42.7664 51.5667L40.8889 48.3207ZM51.2026 30.4537C51.2026 34.2135 50.1984 37.7332 48.4446 40.765L51.6906 42.6425C53.7656 39.0555 54.9526 34.8905 54.9526 30.4537H51.2026ZM16.0669 15.7967C19.7953 12.1052 24.9188 9.82872 30.5776 9.82872V6.07872C23.8912 6.07872 17.8305 8.77349 13.4285 13.1319L16.0669 15.7967Z" fill="#FFF"/>
</svg>
