<svg width="92" height="94" viewBox="0 0 92 94" fill="none" xmlns="http://www.w3.org/2000/svg">
<g filter="url(#filter0_d_408_5)">
<path d="M39 11.0415C43.3316 8.54059 48.6684 8.54059 53 11.0415L64.1147 17.4585C68.4464 19.9594 71.1147 24.5812 71.1147 29.5829V42.4171C71.1147 47.4188 68.4464 52.0406 64.1147 54.5415L53 60.9585C48.6684 63.4594 43.3316 63.4594 39 60.9585L27.8853 54.5415C23.5536 52.0406 20.8853 47.4188 20.8853 42.4171V29.5829C20.8853 24.5812 23.5536 19.9594 27.8853 17.4585L39 11.0415Z" fill="url(#paint0_linear_408_5)"/>
<path d="M12 8V12L14.5 14.5" stroke="url(#paint1_linear_408_5)" stroke-opacity="0.19" stroke-width="4" transform="translate(31, 22)" stroke-width="1.5" stroke-linecap="round" stroke-linejoin="round"/>
<path d="M5.60423 5.60423L5.0739 5.0739V5.0739L5.60423 5.60423ZM4.33785 6.87061L3.58786 6.87438C3.58992 7.28564 3.92281 7.61853 4.33408 7.6206L4.33785 6.87061ZM6.87963 7.63339C7.29384 7.63547 7.63131 7.30138 7.63339 6.88717C7.63547 6.47296 7.30138 6.13549 6.88717 6.13341L6.87963 7.63339ZM5.07505 4.32129C5.07296 3.90708 4.7355 3.57298 4.32129 3.57506C3.90708 3.57715 3.57298 3.91462 3.57507 4.32882L5.07505 4.32129ZM3.75 12C3.75 11.5858 3.41421 11.25 3 11.25C2.58579 11.25 2.25 11.5858 2.25 12H3.75ZM16.8755 20.4452C17.2341 20.2378 17.3566 19.779 17.1492 19.4204C16.9418 19.0619 16.483 18.9393 16.1245 19.1468L16.8755 20.4452ZM19.1468 16.1245C18.9393 16.483 19.0619 16.9418 19.4204 17.1492C19.779 17.3566 20.2378 17.2341 20.4452 16.8755L19.1468 16.1245ZM5.14033 5.07126C4.84598 5.36269 4.84361 5.83756 5.13505 6.13191C5.42648 6.42626 5.90134 6.42862 6.19569 6.13719L5.14033 5.07126ZM18.8623 5.13786C15.0421 1.31766 8.86882 1.27898 5.0739 5.0739L6.13456 6.13456C9.33366 2.93545 14.5572 2.95404 17.8017 6.19852L18.8623 5.13786ZM5.0739 5.0739L3.80752 6.34028L4.86818 7.40094L6.13456 6.13456L5.0739 5.0739ZM4.33408 7.6206L6.87963 7.63339L6.88717 6.13341L4.34162 6.12062L4.33408 7.6206ZM5.08784 6.86684L5.07505 4.32129L3.57507 4.32882L3.58786 6.87438L5.08784 6.86684ZM12 3.75C16.5563 3.75 20.25 7.44365 20.25 12H21.75C21.75 6.61522 17.3848 2.25 12 2.25V3.75ZM12 20.25C7.44365 20.25 3.75 16.5563 3.75 12H2.25C2.25 17.3848 6.61522 21.75 12 21.75V20.25ZM16.1245 19.1468C14.9118 19.8483 13.5039 20.25 12 20.25V21.75C13.7747 21.75 15.4407 21.2752 16.8755 20.4452L16.1245 19.1468ZM20.25 12C20.25 13.5039 19.8483 14.9118 19.1468 16.1245L20.4452 16.8755C21.2752 15.4407 21.75 13.7747 21.75 12H20.25ZM6.19569 6.13719C7.68707 4.66059 9.73646 3.75 12 3.75V2.25C9.32542 2.25 6.90113 3.32791 5.14033 5.07126L6.19569 6.13719Z" stroke="url(#paint1_linear_408_5)" stroke-opacity="0.19" stroke-width="4" transform="translate(31, 22)"/>
</g>
<path d="M12 8V12L14.5 14.5" stroke="url(#paint1_linear_408_5)" stroke="white" stroke-width="4" transform="translate(31, 22)" stroke-width="1.5" stroke-linecap="round" stroke-linejoin="round" x='2'/>
<path d="M5.60423 5.60423L5.0739 5.0739V5.0739L5.60423 5.60423ZM4.33785 6.87061L3.58786 6.87438C3.58992 7.28564 3.92281 7.61853 4.33408 7.6206L4.33785 6.87061ZM6.87963 7.63339C7.29384 7.63547 7.63131 7.30138 7.63339 6.88717C7.63547 6.47296 7.30138 6.13549 6.88717 6.13341L6.87963 7.63339ZM5.07505 4.32129C5.07296 3.90708 4.7355 3.57298 4.32129 3.57506C3.90708 3.57715 3.57298 3.91462 3.57507 4.32882L5.07505 4.32129ZM3.75 12C3.75 11.5858 3.41421 11.25 3 11.25C2.58579 11.25 2.25 11.5858 2.25 12H3.75ZM16.8755 20.4452C17.2341 20.2378 17.3566 19.779 17.1492 19.4204C16.9418 19.0619 16.483 18.9393 16.1245 19.1468L16.8755 20.4452ZM19.1468 16.1245C18.9393 16.483 19.0619 16.9418 19.4204 17.1492C19.779 17.3566 20.2378 17.2341 20.4452 16.8755L19.1468 16.1245ZM5.14033 5.07126C4.84598 5.36269 4.84361 5.83756 5.13505 6.13191C5.42648 6.42626 5.90134 6.42862 6.19569 6.13719L5.14033 5.07126ZM18.8623 5.13786C15.0421 1.31766 8.86882 1.27898 5.0739 5.0739L6.13456 6.13456C9.33366 2.93545 14.5572 2.95404 17.8017 6.19852L18.8623 5.13786ZM5.0739 5.0739L3.80752 6.34028L4.86818 7.40094L6.13456 6.13456L5.0739 5.0739ZM4.33408 7.6206L6.87963 7.63339L6.88717 6.13341L4.34162 6.12062L4.33408 7.6206ZM5.08784 6.86684L5.07505 4.32129L3.57507 4.32882L3.58786 6.87438L5.08784 6.86684ZM12 3.75C16.5563 3.75 20.25 7.44365 20.25 12H21.75C21.75 6.61522 17.3848 2.25 12 2.25V3.75ZM12 20.25C7.44365 20.25 3.75 16.5563 3.75 12H2.25C2.25 17.3848 6.61522 21.75 12 21.75V20.25ZM16.1245 19.1468C14.9118 19.8483 13.5039 20.25 12 20.25V21.75C13.7747 21.75 15.4407 21.2752 16.8755 20.4452L16.1245 19.1468ZM20.25 12C20.25 13.5039 19.8483 14.9118 19.1468 16.1245L20.4452 16.8755C21.2752 15.4407 21.75 13.7747 21.75 12H20.25ZM6.19569 6.13719C7.68707 4.66059 9.73646 3.75 12 3.75V2.25C9.32542 2.25 6.90113 3.32791 5.14033 5.07126L6.19569 6.13719Z" stroke="white" stroke-width="1.4" transform="translate(31, 22)" x='2'/>
<defs>
<filter id="filter0_d_408_5" x="0.885254" y="0.165833" width="90.2295" height="93.6683" filterUnits="userSpaceOnUse" color-interpolation-filters="sRGB">
<feFlood flood-opacity="0" result="BackgroundImageFix"/>
<feColorMatrix in="SourceAlpha" type="matrix" values="0 0 0 0 0 0 0 0 0 0 0 0 0 0 0 0 0 0 127 0" result="hardAlpha"/>
<feOffset dy="11"/>
<feGaussianBlur stdDeviation="10"/>
<feComposite in2="hardAlpha" operator="out"/>
<feColorMatrix type="matrix" values="0 0 0 0 0.12549 0 0 0 0 0.392157 0 0 0 0 0.980392 0 0 0 0.36 0"/>
<feBlend mode="normal" in2="BackgroundImageFix" result="effect1_dropShadow_408_5"/>
<feBlend mode="normal" in="SourceGraphic" in2="effect1_dropShadow_408_5" result="shape"/>
</filter>
<linearGradient id="paint0_linear_408_5" x1="17" y1="2.66805" x2="78.0601" y2="47.7284" gradientUnits="userSpaceOnUse">
<stop stop-color="#0056BC"/>
<stop offset="1" stop-color="#0F79F5"/>
</linearGradient>
<linearGradient id="paint1_linear_408_5" x1="46" y1="7" x2="46" y2="65" gradientUnits="userSpaceOnUse">
<stop stop-color="white" stop-opacity="0.54"/>
<stop offset="1" stop-color="white" stop-opacity="0"/>
</linearGradient>
</defs>
</svg>