<svg width="24" height="24" viewBox="0 0 51 51" fill="none" xmlns="http://www.w3.org/2000/svg">
<path fill-rule="evenodd" clip-rule="evenodd" d="M0.864785 15.0397C-0.486365 17.8581 -0.0120655 21.1544 0.936535 27.7471L1.63346 32.5904C2.85198 41.0591 3.46126 45.2934 6.39893 47.8229C9.33658 50.3524 13.6448 50.3524 22.2611 50.3524H27.7916C36.4079 50.3524 40.7161 50.3524 43.6539 47.8229C46.5914 45.2934 47.2006 41.0591 48.4194 32.5904L49.1161 27.7471C50.0649 21.1544 50.5391 17.8581 49.1879 15.0397C47.8369 12.2214 44.9609 10.5082 39.2091 7.08189L35.7469 5.01954C30.5239 1.90809 27.9121 0.352364 25.0264 0.352364C22.1406 0.352364 19.529 1.90809 14.3057 5.01954L10.8436 7.08189C5.09184 10.5082 2.21593 12.2214 0.864785 15.0397ZM25.0264 42.2274C23.9909 42.2274 23.1514 41.3879 23.1514 40.3524V32.8524C23.1514 31.8169 23.9909 30.9774 25.0264 30.9774C26.0619 30.9774 26.9014 31.8169 26.9014 32.8524V40.3524C26.9014 41.3879 26.0619 42.2274 25.0264 42.2274Z" fill="#FFF"/>
</svg>
